HIERARCHY
ROOT Hips
{
	OFFSET 0.00000 0.00000 0.00000
	CHANNELS 6 Xposition Yposition Zposition Zrotation Yrotation Xrotation 
	JOINT LHipJoint
	{
		OFFSET 0 0 0
		CHANNELS 3 Zrotation Yrotation Xrotation
		JOINT LeftUpLeg
		{
			OFFSET 2.36090 -1.39315 1.24752
			CHANNELS 3 Zrotation Yrotation Xrotation
			JOINT LeftLeg
			{
				OFFSET 2.06810 -5.68207 0.00000
				CHANNELS 3 Zrotation Yrotation Xrotation
				JOINT LeftFoot
				{
					OFFSET 2.46631 -6.77613 0.00000
					CHANNELS 3 Zrotation Yrotation Xrotation
					JOINT LeftToeBase
					{
						OFFSET 0.26031 -0.71520 1.99545
						CHANNELS 3 Zrotation Yrotation Xrotation
						End Site
						{
							OFFSET 0.00000 -0.00000 1.05957
						}
					}
				}
			}
		}
	}
	JOINT RHipJoint
	{
		OFFSET 0 0 0
		CHANNELS 3 Zrotation Yrotation Xrotation
		JOINT RightUpLeg
		{
			OFFSET -2.25243 -1.39315 1.24752
			CHANNELS 3 Zrotation Yrotation Xrotation
			JOINT RightLeg
			{
				OFFSET -2.17343 -5.97145 0.00000
				CHANNELS 3 Zrotation Yrotation Xrotation
				JOINT RightFoot
				{
					OFFSET -2.52372 -6.93386 0.00000
					CHANNELS 3 Zrotation Yrotation Xrotation
					JOINT RightToeBase
					{
						OFFSET -0.22538 -0.61923 2.11447
						CHANNELS 3 Zrotation Yrotation Xrotation
						End Site
						{
							OFFSET -0.00000 -0.00000 1.10506
						}
					}
				}
			}
		}
	}
	JOINT LowerBack
	{
		OFFSET 0 0 0
		CHANNELS 3 Zrotation Yrotation Xrotation
		JOINT Spine
		{
			OFFSET 0.01594 2.13103 0.08007
			CHANNELS 3 Zrotation Yrotation Xrotation
			JOINT Spine1
			{
				OFFSET 0.01393 2.09723 0.18338
				CHANNELS 3 Zrotation Yrotation Xrotation
				JOINT Neck
				{
					OFFSET 0 0 0
					CHANNELS 3 Zrotation Yrotation Xrotation
					JOINT Neck1
					{
						OFFSET 0.05351 1.38915 0.32494
						CHANNELS 3 Zrotation Yrotation Xrotation
						JOINT Head
						{
							OFFSET 0.00711 1.45992 -0.21666
							CHANNELS 3 Zrotation Yrotation Xrotation
							End Site
							{
								OFFSET -0.00433 1.47702 -0.11056
							}
						}
					}
				}
				JOINT LeftShoulder
				{
					OFFSET 0 0 0
					CHANNELS 3 Zrotation Yrotation Xrotation
					JOINT LeftArm
					{
						OFFSET 2.87198 0.92249 0.11132
						CHANNELS 3 Zrotation Yrotation Xrotation
						JOINT LeftForeArm
						{
							OFFSET 5.52731 -0.00000 0.00000
							CHANNELS 3 Zrotation Yrotation Xrotation
							JOINT LeftHand
							{
								OFFSET 3.11059 -0.00000 0.00000
								CHANNELS 3 Zrotation Yrotation Xrotation
								JOINT LeftFingerBase
								{
									OFFSET 0 0 0
									CHANNELS 3 Zrotation Yrotation Xrotation
									JOINT LeftHandIndex1
									{
										OFFSET 0.41963 -0.00000 0.00000
										CHANNELS 3 Zrotation Yrotation Xrotation
										End Site
										{
											OFFSET 0.33831 -0.00000 0.00000
										}
									}
								}
								JOINT LThumb
								{
									OFFSET 0 0 0
									CHANNELS 3 Zrotation Yrotation Xrotation
									End Site
									{
										OFFSET 0.34348 -0.00000 0.34348
									}
								}
							}
						}
					}
				}
				JOINT RightShoulder
				{
					OFFSET 0 0 0
					CHANNELS 3 Zrotation Yrotation Xrotation
					JOINT RightArm
					{
						OFFSET -2.94710 0.68072 0.32187
						CHANNELS 3 Zrotation Yrotation Xrotation
						JOINT RightForeArm
						{
							OFFSET -5.25396 -0.00000 -0.00000
							CHANNELS 3 Zrotation Yrotation Xrotation
							JOINT RightHand
							{
								OFFSET -3.10567 -0.00000 0.00000
								CHANNELS 3 Zrotation Yrotation Xrotation
								JOINT RightFingerBase
								{
									OFFSET 0 0 0
									CHANNELS 3 Zrotation Yrotation Xrotation
									JOINT RightHandIndex1
									{
										OFFSET -0.49868 -0.00000 0.00000
										CHANNELS 3 Zrotation Yrotation Xrotation
										End Site
										{
											OFFSET -0.40204 -0.00000 0.00000
										}
									}
								}
								JOINT RThumb
								{
									OFFSET 0 0 0
									CHANNELS 3 Zrotation Yrotation Xrotation
									End Site
									{
										OFFSET -0.40818 -0.00000 0.40818
									}
								}
							}
						}
					}
				}
			}
		}
	}
}
MOTION
Frames: 16
Frame Time: .0083333
8.3719 14.6807 28.2296 0 0 0 0 0 0 -21 0 0 0 0 0 0 0 0 0 0 0 0 0 0 21 0 0 0 0 0 0 0 0 0 0 0 0 0 0 0 0 0 0 0 0 0 0 -16 0 0 21 0 0 11 0 0 0 -8 0 0 0 0 0 0 0 0 0 0 0 0 0 0 0 0 0 0 0 0 8 0 0 0 0 0 0 0 0 0 0 0 0 0 0 0 0 0
8.3719 14.6807 28.2296 91.0243 -89.8067 -67.9579 0.0000 0.0000 0.0000 4.0089 -9.9404 -10.2779 0.0000 0.0000 0.0000 -0.0069 7.2538 -10.1855 1.1936 -6.9325 -19.5156 0.0000 0.0000 0.0000 -8.0079 42.1267 -9.0918 -1.8556 -8.5586 24.4239 -0.1022 -27.8340 -39.4686 -0.3402 3.7479 -10.3685 -1.6777 0.2400 -17.4937 -0.1114 0.0567 -8.2697 0.8378 -0.1561 0.9613 4.2074 3.0579 -26.5421 2.5274 1.2660 30.7953 0.5790 1.3018 15.2851 -0.0000 0.0000 0.0000 -15.3141 8.7932 -43.4986 15.0869 -24.2671 -3.2616 -0.0000 0.0000 -8.6291 27.2754 -2.3020 -1.1864 -7.1250 0.0000 -0.0000 0.5281 27.3900 -0.2259 -0.0000 0.0000 0.0000 15.2365 -8.0414 -51.2823 -13.0959 21.4276 -2.4882 0.0000 0.0000 16.6591 -22.4990 -20.1847 8.1334 7.1250 -0.0000 -0.0000 6.0640 -51.5788 -0.9855
8.3548 14.6784 28.2263 29.7940 -89.8016 -6.8075 0.0000 0.0000 0.0000 4.1307 -10.0569 -10.1553 0.0000 -0.0000 -0.0000 -0.0205 7.4593 -10.1708 1.3088 -7.2470 -20.4491 0.0000 0.0000 0.0000 -7.6006 42.0046 -8.6908 -1.8296 -8.5018 24.2489 -0.0864 -27.9481 -39.5442 -0.3457 3.7781 -10.4532 -1.6209 0.2149 -17.5617 -0.1067 0.0136 -8.2893 0.8030 -0.1800 0.9771 3.9638 3.0282 -26.5840 2.7508 1.2349 30.9732 0.7110 1.2929 15.3718 0.0000 -0.0000 0.0000 -15.3857 8.6918 -43.4057 15.1033 -24.2898 -3.2683 -0.0000 0.0000 -8.6958 38.4832 -5.4424 -4.3118 -7.1250 0.0000 -0.0000 8.6667 23.0592 -4.6311 0.0000 -0.0000 0.0000 15.3202 -8.1928 -51.2939 -13.1048 21.4405 -2.4914 0.0000 0.0000 16.6545 -22.4879 -20.0875 8.0920 7.1250 -0.0000 -0.0000 6.0463 -51.4748 -0.9672
8.3382 14.6733 28.2231 7.1010 -89.6139 15.7654 0.0000 0.0000 0.0000 4.2310 -10.2250 -10.0028 0.0000 -0.0000 -0.0000 -0.0213 7.5198 -10.2420 1.2777 -7.1635 -20.2008 0.0000 0.0000 0.0000 -7.1660 42.0240 -8.1136 -1.8031 -8.4433 24.0689 -0.0711 -28.1473 -39.7358 -0.3521 3.8126 -10.5500 -1.5614 0.1541 -17.5900 -0.1043 -0.0749 -8.2890 0.7560 -0.2259 0.9947 4.0146 2.9961 -26.4795 2.7183 1.1804 30.9643 0.6753 1.2696 15.3458 -0.0000 -0.0000 0.0000 -15.4644 8.6936 -43.1865 15.1383 -24.3384 -3.2827 -0.0000 0.0000 -8.7734 27.2050 -2.2464 -1.1543 -7.1250 0.0000 -0.0000 0.4751 27.4542 -0.2026 -0.0000 -0.0000 0.0000 15.4033 -8.3110 -51.1556 -13.1321 21.4805 -2.5015 0.0000 0.0000 16.5453 -22.3716 -19.9453 7.9923 7.1250 -0.0000 -0.0000 6.1205 -51.3054 -0.9537
8.3233 14.6696 28.2165 -5.6243 -89.4201 28.3560 0.0000 0.0000 0.0000 4.3765 -10.3575 -9.8364 0.0000 0.0000 0.0000 -0.0428 7.8011 -10.1625 1.4247 -7.5480 -21.3493 0.0000 0.0000 0.0000 -6.7068 41.8602 -7.6642 -1.7770 -8.3854 23.8908 -0.0503 -28.2262 -39.7427 -0.3578 3.8430 -10.6355 -1.4933 0.1437 -17.5945 -0.1413 -0.0972 -8.2865 0.6745 -0.2391 1.0006 3.8726 2.9645 -26.5269 2.9098 1.1141 31.0932 0.7693 1.2535 15.4136 0.0000 -0.0000 0.0000 -15.4741 8.5752 -42.9428 15.1393 -24.3398 -3.2831 -0.0000 0.0000 -8.8757 28.8963 -2.7863 -1.5369 -7.1250 0.0000 -0.0000 1.7549 26.7971 -0.7756 0.0000 -0.0000 0.0000 15.5743 -8.5565 -51.0480 -13.1597 21.5208 -2.5116 0.0000 0.0000 16.3208 -22.2278 -20.0206 7.9644 7.1250 -0.0000 -0.0000 6.2857 -51.3595 -0.9879
8.3080 14.6656 28.2108 -10.4909 -89.2213 33.0971 0.0000 0.0000 0.0000 4.5030 -10.4922 -9.6788 0.0000 -0.0000 -0.0000 -0.0549 7.9769 -10.1507 1.4945 -7.7224 -21.8742 0.0000 0.0000 0.0000 -6.2661 41.7893 -7.1782 -1.7521 -8.3293 23.7189 -0.0344 -28.3558 -39.8404 -0.3616 3.8632 -10.6921 -1.4469 0.1072 -17.6179 -0.1459 -0.1507 -8.2790 0.6337 -0.2669 1.0221 3.7585 2.9422 -26.5382 3.0315 1.0798 31.1857 0.8346 1.2432 15.4573 0.0000 -0.0000 0.0000 -15.5467 8.5180 -42.7444 15.1479 -24.3517 -3.2867 -0.0000 0.0000 -8.9379 28.1506 -2.6252 -1.4039 -7.1250 0.0000 -0.0000 1.1906 27.0025 -0.5203 0.0000 -0.0000 0.0000 15.6745 -8.7052 -51.0238 -13.1713 21.5377 -2.5158 0.0000 0.0000 16.2184 -22.1460 -19.9911 7.9213 7.1250 -0.0000 -0.0000 6.3584 -51.3145 -0.9924
8.2932 14.6615 28.2042 -13.3734 -89.0304 35.8504 0.0000 0.0000 0.0000 4.6260 -10.6182 -9.5195 0.0000 -0.0000 -0.0000 -0.0664 8.1448 -10.1422 1.5543 -7.8684 -22.3150 0.0000 0.0000 0.0000 -5.8344 41.7300 -6.7041 -1.7288 -8.2767 23.5577 -0.0173 -28.4861 -39.9346 -0.3647 3.8794 -10.7377 -1.4169 0.0688 -17.6417 -0.1431 -0.2039 -8.2643 0.6099 -0.2937 1.0514 3.6531 2.9247 -26.5508 3.1334 1.0571 31.2654 0.8925 1.2360 15.4955 0.0000 -0.0000 0.0000 -15.6443 8.4671 -42.5554 15.1515 -24.3567 -3.2882 -0.0000 0.0000 -8.9709 27.1589 -2.4041 -1.2328 -7.1250 0.0000 -0.0000 0.4364 27.2780 -0.1879 0.0000 -0.0000 0.0000 15.7554 -8.8353 -51.0352 -13.1740 21.5416 -2.5168 0.0000 0.0000 16.1330 -22.0533 -19.9704 7.8774 7.1250 -0.0000 -0.0000 6.4444 -51.2769 -0.9999
8.2789 14.6575 28.1966 -15.3095 -88.8565 37.6571 0.0000 0.0000 0.0000 4.7411 -10.7291 -9.3602 0.0000 -0.0000 -0.0000 -0.0765 8.2950 -10.1450 1.5957 -7.9676 -22.6156 0.0000 0.0000 0.0000 -5.4203 41.6926 -6.2533 -1.7086 -8.2307 23.4169 0.0053 -28.6308 -40.0227 -0.3692 3.9028 -10.8034 -1.4093 0.0275 -17.6675 -0.1317 -0.2572 -8.2448 0.6078 -0.3198 1.0867 3.5518 2.9121 -26.5609 3.2220 1.0461 31.3324 0.9463 1.2321 15.5274 -0.0000 0.0000 0.0000 -15.7695 8.4299 -42.3714 15.1482 -24.3522 -3.2868 -0.0000 0.0000 -8.9836 27.0706 -2.3992 -1.2256 -7.1250 0.0000 -0.0000 0.3688 27.2858 -0.1587 -0.0000 0.0000 0.0000 15.8147 -8.9419 -51.0674 -13.1686 21.5338 -2.5148 0.0000 0.0000 16.0646 -21.9676 -19.9684 7.8432 7.1250 -0.0000 -0.0000 6.5288 -51.2600 -1.0104
8.2651 14.6536 28.1882 -16.6722 -88.7065 38.8945 0.0000 0.0000 0.0000 4.8415 -10.8213 -9.2039 0.0000 -0.0000 -0.0000 -0.0854 8.4316 -10.1568 1.6226 -8.0314 -22.8094 0.0000 0.0000 0.0000 -5.0367 41.6701 -5.8407 -1.6919 -8.1925 23.3004 0.0339 -28.7822 -40.0932 -0.3755 3.9354 -10.8951 -1.4241 -0.0103 -17.7012 -0.1157 -0.3023 -8.2213 0.6245 -0.3412 1.1302 3.4676 2.8975 -26.5548 3.2839 1.0374 31.3719 0.9856 1.2272 15.5431 -0.0000 0.0000 0.0000 -15.9215 8.3843 -42.2192 15.1393 -24.3398 -3.2831 -0.0000 0.0000 -8.9480 26.9676 -2.3870 -1.2140 -7.1250 0.0000 -0.0000 0.2899 27.3019 -0.1247 -0.0000 0.0000 0.0000 15.8569 -9.0423 -51.1020 -13.1589 21.5196 -2.5113 0.0000 0.0000 16.0012 -21.8875 -19.9836 7.8176 7.1250 -0.0000 -0.0000 6.6129 -51.2623 -1.0239
8.2519 14.6500 28.1791 -17.6603 -88.5854 39.7635 0.0000 0.0000 0.0000 4.9213 -10.8920 -9.0512 0.0000 0.0000 0.0000 -0.0941 8.5664 -10.1740 1.6400 -8.0721 -22.9332 0.0000 0.0000 0.0000 -4.6982 41.6349 -5.4892 -1.6792 -8.1632 23.2109 0.0748 -28.9327 -40.1061 -0.3863 3.9912 -11.0520 -1.4632 -0.0418 -17.7406 -0.0980 -0.3354 -8.1983 0.6588 -0.3560 1.1758 3.3903 2.8788 -26.5344 3.3299 1.0275 31.3924 1.0161 1.2201 15.5468 0.0000 -0.0000 0.0000 -16.0946 8.3317 -42.0636 15.1225 -24.3165 -3.2762 -0.0000 0.0000 -8.9026 26.9466 -2.3809 -1.2098 -7.1250 0.0000 -0.0000 0.2740 27.3092 -0.1178 0.0000 -0.0000 0.0000 15.8955 -9.1439 -51.1351 -13.1516 21.5089 -2.5086 0.0000 0.0000 15.9563 -21.8570 -20.0155 7.8175 7.1250 -0.0000 -0.0000 6.6527 -51.2902 -1.0347
8.2391 14.6467 28.1693 -18.6077 -88.4922 40.5974 0.0000 0.0000 0.0000 4.9851 -10.9383 -8.8998 0.0000 0.0000 0.0000 -0.1024 8.6985 -10.1994 1.6464 -8.0872 -22.9792 0.0000 0.0000 0.0000 -4.3974 41.5937 -5.1932 -1.6701 -8.1423 23.1470 0.1269 -29.0815 -40.0665 -0.4019 4.0700 -11.2737 -1.5191 -0.0647 -17.7856 -0.0831 -0.3546 -8.1753 0.7022 -0.3636 1.2240 3.3404 2.8569 -26.4988 3.3515 1.0114 31.3945 1.0297 1.2099 15.5391 -0.0000 -0.0000 0.0000 -16.2794 8.2601 -41.9510 15.1006 -24.2860 -3.2672 -0.0000 0.0000 -8.8098 26.9207 -2.3924 -1.2143 -7.1250 0.0000 -0.0000 0.2538 27.2969 -0.1092 -0.0000 -0.0000 0.0000 15.9403 -9.2459 -51.1723 -13.1468 21.5020 -2.5069 0.0000 0.0000 15.9403 -21.8330 -20.0481 7.8202 7.1250 -0.0000 -0.0000 6.6864 -51.3203 -1.0449
8.2269 14.6437 28.1592 -19.5304 -88.4222 41.4139 0.0000 0.0000 0.0000 5.0343 -10.9657 -8.7542 0.0000 -0.0000 -0.0000 -0.1115 8.8392 -10.2233 1.6561 -8.1098 -23.0479 0.0000 0.0000 0.0000 -4.1365 41.5277 -4.9584 -1.6640 -8.1280 23.1035 0.1908 -29.2205 -39.9591 -0.4226 4.1721 -11.5615 -1.5868 -0.0806 -17.8342 -0.0702 -0.3629 -8.1549 0.7521 -0.3657 1.2711 3.2796 2.8320 -26.4681 3.3836 0.9912 31.4011 1.0488 1.1983 15.5344 0.0000 -0.0000 0.0000 -16.4899 8.2096 -41.7604 15.0894 -24.2706 -3.2626 -0.0000 0.0000 -8.8052 26.9168 -2.3976 -1.2167 -7.1250 0.0000 -0.0000 0.2507 27.2913 -0.1078 0.0000 -0.0000 0.0000 15.9917 -9.3476 -51.2040 -13.1471 21.5024 -2.5070 0.0000 0.0000 15.9503 -21.8825 -20.0812 7.8518 7.1250 -0.0000 -0.0000 6.6472 -51.3633 -1.0458
8.2152 14.6409 28.1491 -20.4965 -88.3735 42.2814 0.0000 0.0000 0.0000 5.0696 -10.9744 -8.6127 0.0000 -0.0000 -0.0000 -0.1203 8.9799 -10.2569 1.6596 -8.1179 -23.0728 0.0000 0.0000 0.0000 -3.9139 41.4388 -4.7760 -1.6594 -8.1174 23.0713 0.2655 -29.3501 -39.7882 -0.4484 4.2962 -11.9116 -1.6602 -0.0910 -17.8876 -0.0612 -0.3630 -8.1355 0.8027 -0.3638 1.3194 3.2235 2.8068 -26.4404 3.4158 0.9680 31.4106 1.0668 1.1860 15.5319 0.0000 -0.0000 0.0000 -16.7203 8.1791 -41.5302 15.0879 -24.2685 -3.2620 -0.0000 0.0000 -8.8617 26.9500 -2.4205 -1.2301 -7.1250 0.0000 -0.0000 0.2758 27.2647 -0.1188 0.0000 -0.0000 0.0000 16.0529 -9.4359 -51.2507 -13.1488 21.5049 -2.5076 0.0000 0.0000 16.0049 -21.9307 -20.0768 7.8691 7.1250 -0.0000 -0.0000 6.5980 -51.3671 -1.0386
8.2040 14.6384 28.1392 -21.6264 -88.3370 43.3174 0.0000 0.0000 0.0000 5.0984 -10.9701 -8.4740 0.0000 0.0000 0.0000 -0.1295 9.1272 -10.2973 1.6593 -8.1170 -23.0701 0.0000 0.0000 0.0000 -3.7157 41.3265 -4.6311 -1.6552 -8.1076 23.0414 0.3438 -29.4594 -39.5715 -0.4763 4.4260 -12.2785 -1.7266 -0.0973 -17.9420 -0.0534 -0.3590 -8.1180 0.8488 -0.3602 1.3659 3.1706 2.7837 -26.4218 3.4470 0.9456 31.4303 1.0844 1.1745 15.5362 0.0000 -0.0000 0.0000 -16.9689 8.1759 -41.2539 15.0956 -24.2791 -3.2651 -0.0000 0.0000 -8.9940 26.9760 -2.4339 -1.2383 -7.1250 0.0000 -0.0000 0.2954 27.2491 -0.1274 0.0000 -0.0000 0.0000 16.1121 -9.5121 -51.2792 -13.1515 21.5088 -2.5086 0.0000 0.0000 16.0708 -21.9375 -20.0636 7.8668 7.1250 -0.0000 -0.0000 6.5872 -51.3544 -1.0348
8.1933 14.6363 28.1294 -23.0540 -88.3055 44.6573 0.0000 0.0000 0.0000 5.1279 -10.9553 -8.3405 0.0000 0.0000 0.0000 -0.1400 9.2913 -10.3384 1.6611 -8.1213 -23.0830 0.0000 0.0000 0.0000 -3.5333 41.1863 -4.5181 -1.6498 -8.0950 23.0029 0.4073 -29.5132 -39.3445 -0.4980 4.5242 -12.5563 -1.7687 -0.0974 -17.9958 -0.0532 -0.3509 -8.1052 0.8740 -0.3554 1.4071 3.1304 2.7647 -26.4088 3.4790 0.9217 31.4601 1.1001 1.1639 15.5469 0.0000 0.0000 0.0000 -17.2208 8.1980 -40.9405 15.1127 -24.3028 -3.2722 -0.0000 0.0000 -9.1969 26.9910 -2.4396 -1.2420 -7.1250 0.0000 -0.0000 0.3069 27.2423 -0.1324 0.0000 0.0000 0.0000 16.1780 -9.5788 -51.2786 -13.1546 21.5133 -2.5097 0.0000 0.0000 16.1352 -21.8886 -20.0436 7.8403 7.1250 -0.0000 -0.0000 6.6297 -51.3252 -1.0368
8.1830 14.6344 28.1199 -24.7122 -88.2715 46.2334 0.0000 0.0000 0.0000 5.1632 -10.9365 -8.2147 0.0000 -0.0000 -0.0000 -0.1513 9.4669 -10.3875 1.6571 -8.1121 -23.0550 0.0000 0.0000 0.0000 -3.3531 41.0439 -4.4100 -1.6417 -8.0761 22.9454 0.4715 -29.5640 -39.1079 -0.5191 4.6176 -12.8211 -1.7803 -0.0969 -18.0448 -0.0615 -0.3475 -8.0998 0.8721 -0.3541 1.4380 3.1110 2.7540 -26.4024 3.5139 0.8978 31.5041 1.1140 1.1563 15.5663 0.0000 -0.0000 0.0000 -17.4612 8.2533 -40.6103 15.1313 -24.3287 -3.2798 -0.0000 0.0000 -9.4461 26.9958 -2.4173 -1.2309 -7.1250 0.0000 -0.0000 0.3110 27.2672 -0.1339 0.0000 -0.0000 0.0000 16.2552 -9.6216 -51.2457 -13.1582 21.5186 -2.5110 0.0000 0.0000 16.2024 -21.8342 -20.0203 7.8104 7.1250 -0.0000 -0.0000 6.6768 -51.2914 -1.0387
